<svg xmlns="http://www.w3.org/2000/svg" xmlns:xlink="http://www.w3.org/1999/xlink" width="423" height="106.958" viewBox="0 0 423 106.958">
  <defs>
    <clipPath id="clip-path">
      <rect id="Rectangle_6506" data-name="Rectangle 6506" width="423" height="106.957"/>
    </clipPath>
    <clipPath id="clip-path-25">
      <rect id="Rectangle_6531" data-name="Rectangle 6531" width="423" height="106.957" transform="translate(0 0)"/>
    </clipPath>
  </defs>
  <g id="Dutchess" transform="translate(-41.4 -30.4)">
    <g id="Group_10529" data-name="Group 10529" transform="translate(41.4 30.4)" clip-path="url(#clip-path)">
      <path id="Path_13409" data-name="Path 13409" d="M41.6,88.971a7.737,7.737,0,0,0,2.5-3.577,20.414,20.414,0,0,0,.715-6.618V41.395a20.414,20.414,0,0,0-.715-6.618A9.979,9.979,0,0,0,41.6,31.2H61.811a47.433,47.433,0,0,1,13.414,1.61A30.615,30.615,0,0,1,85.063,38a24.74,24.74,0,0,1,7.512,9.3,28.706,28.706,0,0,1,2.5,11.984A32.11,32.11,0,0,1,93.111,70.37,28.155,28.155,0,0,1,76.12,86.825a56.833,56.833,0,0,1-17.17,2.325H41.6ZM53.941,82c2.146.358,3.935.537,5.545.715a33.185,33.185,0,0,0,3.935.179c6.439,0,11.8-2.146,15.918-6.439A22.973,22.973,0,0,0,85.6,60c0-6.8-2.146-12.341-6.26-16.455s-9.658-6.26-16.634-6.26a34.732,34.732,0,0,0-4.293.358,39.551,39.551,0,0,0-4.471.894V82Z" transform="translate(-41.242 -29.769)" fill="#005581"/>
    </g>
    <g id="Group_10530" data-name="Group 10530" transform="translate(41.4 30.4)" clip-path="url(#clip-path)">
      <path id="Path_13410" data-name="Path 13410" d="M116.88,88.971V84.5a32.946,32.946,0,0,1-8.585,4.471,27.085,27.085,0,0,1-17.886-.179,18.682,18.682,0,0,1-6.8-5.008A18.028,18.028,0,0,1,80.393,77.7a33.253,33.253,0,0,1-.894-9.3V41.395a19.87,19.87,0,0,0-.715-6.439A9.133,9.133,0,0,0,76.1,31.2H92.018a9.133,9.133,0,0,0-2.683,3.756,19.87,19.87,0,0,0-.715,6.439v25.4a51.011,51.011,0,0,0,.537,8.764,11.093,11.093,0,0,0,1.967,4.65A9.092,9.092,0,0,0,95.6,83.248a18.33,18.33,0,0,0,6.618,1.073,20.423,20.423,0,0,0,5.9-.894,21,21,0,0,0,4.829-2.683,8.63,8.63,0,0,0,2.683-3.935,21.3,21.3,0,0,0,.715-6.439V41.395a20.413,20.413,0,0,0-.715-6.618,9.979,9.979,0,0,0-2.5-3.577h15.918a9.133,9.133,0,0,0-2.683,3.756,19.87,19.87,0,0,0-.715,6.439V78.776a19.87,19.87,0,0,0,.715,6.439,9.133,9.133,0,0,0,2.683,3.756H116.88Z" transform="translate(-14.036 -29.769)" fill="#005581"/>
    </g>
    <g id="Group_10531" data-name="Group 10531" transform="translate(41.4 30.4)" clip-path="url(#clip-path)">
      <path id="Path_13411" data-name="Path 13411" d="M135.271,78.776a19.87,19.87,0,0,0,.715,6.439,9.133,9.133,0,0,0,2.683,3.756H122.751a9.133,9.133,0,0,0,2.683-3.756,19.869,19.869,0,0,0,.715-6.439V37.46H121.5a31.844,31.844,0,0,0-7.87.715,10.39,10.39,0,0,0-4.829,2.5l2.862-9.479h41.316L150.3,40.5a7.713,7.713,0,0,0-3.4-2.325,15.59,15.59,0,0,0-5.366-.715h-6.439V78.776Z" transform="translate(11.751 -29.769)" fill="#005581"/>
    </g>
    <g id="Group_10532" data-name="Group 10532" transform="translate(41.4 30.4)" clip-path="url(#clip-path)">
      <path id="Path_13412" data-name="Path 13412" d="M186.817,77.976,182.524,88.35a48.7,48.7,0,0,1-7.691,1.967,46.232,46.232,0,0,1-6.8.715,33.659,33.659,0,0,1-9.479-1.252,36.792,36.792,0,0,1-8.585-3.756,27.543,27.543,0,0,1-10.195-10.553A29.889,29.889,0,0,1,136.2,60.627a27.132,27.132,0,0,1,2.683-11.8,34.2,34.2,0,0,1,7.512-10.195,27.443,27.443,0,0,1,10.016-6.081A34.115,34.115,0,0,1,168.573,30.4a42.562,42.562,0,0,1,6.439.537,41.772,41.772,0,0,1,7.154,1.789v9.3a30.492,30.492,0,0,0-7.333-3.041,23.355,23.355,0,0,0-6.8-1.073c-6.439,0-11.626,1.967-15.561,6.081-3.935,3.935-5.9,9.3-5.9,15.918,0,7.333,1.967,13.057,6.081,17.528s9.3,6.618,15.918,6.618a30.768,30.768,0,0,0,8.585-1.431,65.743,65.743,0,0,0,9.658-4.65" transform="translate(33.358 -30.4)" fill="#005581"/>
    </g>
    <g id="Group_10533" data-name="Group 10533" transform="translate(41.4 30.4)" clip-path="url(#clip-path)">
      <path id="Path_13413" data-name="Path 13413" d="M180.62,78.776a19.871,19.871,0,0,0,.715,6.439,9.133,9.133,0,0,0,2.683,3.756H168.1a9.133,9.133,0,0,0,2.683-3.756,19.87,19.87,0,0,0,.715-6.439V41.395a19.871,19.871,0,0,0-.715-6.439A9.133,9.133,0,0,0,168.1,31.2h15.918a9.133,9.133,0,0,0-2.683,3.756,19.87,19.87,0,0,0-.715,6.439V54.273h31.121V41.395a19.871,19.871,0,0,0-.715-6.439,9.133,9.133,0,0,0-2.683-3.756h15.918a9.134,9.134,0,0,0-2.683,3.756,19.871,19.871,0,0,0-.715,6.439V78.776a19.871,19.871,0,0,0,.715,6.439,9.134,9.134,0,0,0,2.683,3.756H208.343a9.133,9.133,0,0,0,2.683-3.756,19.869,19.869,0,0,0,.715-6.439V60.89H180.62Z" transform="translate(58.514 -29.769)" fill="#005581"/>
    </g>
    <g id="Group_10534" data-name="Group 10534" transform="translate(41.4 30.4)" clip-path="url(#clip-path)">
      <path id="Path_13414" data-name="Path 13414" d="M204.9,88.971a9.133,9.133,0,0,0,2.683-3.756,19.87,19.87,0,0,0,.715-6.439V41.395a19.871,19.871,0,0,0-.715-6.439A9.133,9.133,0,0,0,204.9,31.2h31.658v9.122a16.788,16.788,0,0,0-4.65-2.5,19.034,19.034,0,0,0-5.9-.715,29.441,29.441,0,0,0-3.756.358c-1.431.179-3.041.537-4.829.894V54.63h14.13v8.406a6.735,6.735,0,0,0-2.683-1.61,23.869,23.869,0,0,0-6.26-.537H217.42V81.638c2.146.358,4.114.537,5.9.715a45.34,45.34,0,0,0,4.65.179,26.6,26.6,0,0,0,8.406-1.252A27.215,27.215,0,0,0,244.07,77.7l-4.114,11.268Z" transform="translate(87.533 -29.769)" fill="#005581"/>
    </g>
    <g id="Group_10535" data-name="Group 10535" transform="translate(41.4 30.4)" clip-path="url(#clip-path)">
      <path id="Path_13415" data-name="Path 13415" d="M231.083,88.35,228.4,77.8a39.358,39.358,0,0,0,9.837,5.008,29.321,29.321,0,0,0,9.48,1.61,17.577,17.577,0,0,0,9.658-2.5,7.66,7.66,0,0,0,3.577-6.618,10.471,10.471,0,0,0-.358-2.325,6.046,6.046,0,0,0-1.073-2.146c-1.073-1.61-4.65-3.935-10.553-6.8a32.748,32.748,0,0,1-3.577-1.789c-5.724-2.862-9.48-5.366-11.626-7.87a12.186,12.186,0,0,1-3.219-8.585,13.582,13.582,0,0,1,5.723-11.268c3.756-2.683,9.122-4.114,15.74-4.114,1.967,0,4.114.179,6.26.358a72.861,72.861,0,0,1,7.512,1.252v9.658a29.381,29.381,0,0,0-7.154-4.114,22.077,22.077,0,0,0-7.512-1.252,14.2,14.2,0,0,0-8.049,2.146,6.587,6.587,0,0,0-3.041,5.545,7.333,7.333,0,0,0,2.325,5.366c1.61,1.61,5.187,3.577,10.732,6.26l1.431.715a50.265,50.265,0,0,1,10.374,5.9,12.721,12.721,0,0,1,3.935,4.829,14.443,14.443,0,0,1,1.431,6.081c0,5.008-2.325,9.122-6.8,12.7-4.471,3.4-10.195,5.187-17.17,5.187a35.817,35.817,0,0,1-7.154-.715,57.981,57.981,0,0,1-8.049-1.967" transform="translate(106.065 -30.4)" fill="#005581"/>
    </g>
    <g id="Group_10536" data-name="Group 10536" transform="translate(41.4 30.4)" clip-path="url(#clip-path)">
      <path id="Path_13416" data-name="Path 13416" d="M257.083,88.35,254.4,77.8a39.358,39.358,0,0,0,9.837,5.008,29.321,29.321,0,0,0,9.479,1.61,17.577,17.577,0,0,0,9.658-2.5,7.66,7.66,0,0,0,3.577-6.618,10.468,10.468,0,0,0-.358-2.325,6.044,6.044,0,0,0-1.073-2.146c-1.073-1.61-4.65-3.935-10.553-6.8a32.75,32.75,0,0,1-3.577-1.789c-5.724-2.862-9.479-5.366-11.626-7.87a12.186,12.186,0,0,1-3.219-8.585,13.582,13.582,0,0,1,5.723-11.268c3.756-2.683,9.122-4.114,15.74-4.114,1.967,0,4.114.179,6.26.358a65.7,65.7,0,0,1,7.512,1.252v9.658a29.383,29.383,0,0,0-7.154-4.114,22.078,22.078,0,0,0-7.512-1.252,14.2,14.2,0,0,0-8.049,2.146,6.587,6.587,0,0,0-3.041,5.545,7.333,7.333,0,0,0,2.325,5.366c1.61,1.61,5.187,3.577,10.731,6.26l1.431.715a50.263,50.263,0,0,1,10.374,5.9,12.721,12.721,0,0,1,3.935,4.829,14.443,14.443,0,0,1,1.431,6.081c0,5.008-2.325,9.122-6.8,12.7-4.471,3.4-10.195,5.187-17.17,5.187a35.818,35.818,0,0,1-7.154-.715,64.848,64.848,0,0,1-8.048-1.967" transform="translate(126.568 -30.4)" fill="#005581"/>
    </g>
    <g id="Group_10537" data-name="Group 10537" transform="translate(41.4 30.4)" clip-path="url(#clip-path)">
      <path id="Path_13417" data-name="Path 13417" d="M64.752,96.615l-1.967,5.008a34.782,34.782,0,0,1-3.577.894,19.709,19.709,0,0,1-3.219.358,17.64,17.64,0,0,1-4.293-.537,15.656,15.656,0,0,1-3.935-1.789,12.555,12.555,0,0,1-4.65-5.008,15.6,15.6,0,0,1-1.61-7.154,13.253,13.253,0,0,1,1.252-5.723,15.683,15.683,0,0,1,3.4-4.829,12.621,12.621,0,0,1,4.65-2.862A14.575,14.575,0,0,1,56.345,73.9a18.393,18.393,0,0,1,3.041.179,32.248,32.248,0,0,1,3.4.894v4.471a17.4,17.4,0,0,0-3.4-1.431,10.128,10.128,0,0,0-3.219-.537,9.052,9.052,0,0,0-7.154,2.862,10.739,10.739,0,0,0-2.683,7.512,12,12,0,0,0,2.862,8.406,9.118,9.118,0,0,0,7.333,3.219,10.817,10.817,0,0,0,3.935-.715,47.751,47.751,0,0,0,4.293-2.146" transform="translate(-41.321 3.903)" fill="#005581"/>
    </g>
    <g id="Group_10538" data-name="Group 10538" transform="translate(41.4 30.4)" clip-path="url(#clip-path)">
      <path id="Path_13418" data-name="Path 13418" d="M70.566,102.875a15.492,15.492,0,0,1-5.723-1.073,13.594,13.594,0,0,1-4.65-2.862,12.1,12.1,0,0,1-3.219-4.65A15.492,15.492,0,0,1,55.9,88.566a12.349,12.349,0,0,1,.715-4.471,17.408,17.408,0,0,1,1.967-4.114A15.4,15.4,0,0,1,63.77,75.51a14.643,14.643,0,0,1,6.8-1.61,15.755,15.755,0,0,1,5.9,1.073,13.594,13.594,0,0,1,4.65,2.862,12.1,12.1,0,0,1,3.219,4.65,15.755,15.755,0,0,1,1.073,5.9,13.253,13.253,0,0,1-1.252,5.723,18.15,18.15,0,0,1-3.4,4.829,11.326,11.326,0,0,1-4.65,2.862,14.575,14.575,0,0,1-5.545,1.073m.179-25.934a9.369,9.369,0,0,0-7.333,3.219,11.4,11.4,0,0,0-2.862,8.049,12,12,0,0,0,2.862,8.406,9.583,9.583,0,0,0,14.488.179,11.4,11.4,0,0,0,2.862-8.049A12.305,12.305,0,0,0,77.9,80.339a8.882,8.882,0,0,0-7.154-3.4" transform="translate(-29.966 3.903)" fill="#005581"/>
    </g>
    <g id="Group_10539" data-name="Group 10539" transform="translate(41.4 30.4)" clip-path="url(#clip-path)">
      <path id="Path_13419" data-name="Path 13419" d="M73.2,101.844A8.408,8.408,0,0,0,74.81,99.7a10.252,10.252,0,0,0,.715-2.5l2.683-18.6a6.324,6.324,0,0,1,.179-1.073v-.894a2.269,2.269,0,0,0-.179-1.073A5.707,5.707,0,0,0,77.135,74.3h6.8L91.98,94.69,99.85,74.3h6.439a3.208,3.208,0,0,0-.894,1.252,3.571,3.571,0,0,0-.358,1.61v1.431l2.325,18.959c.179.894.358,1.789.537,2.5a7.386,7.386,0,0,0,1.252,1.967h-7.333a2.782,2.782,0,0,0,1.073-1.431,5.292,5.292,0,0,0,.358-1.789v-.537L101.46,78.593l-9.3,23.43a5.684,5.684,0,0,1-1.789-1.789,15.6,15.6,0,0,1-1.61-3.041l-7.512-18.6L78.566,96.836a3.492,3.492,0,0,0-.179,1.252v.537a3.572,3.572,0,0,0,.358,1.61c.179.537.715.894,1.252,1.431H73.2Z" transform="translate(-16.323 4.219)" fill="#005581"/>
    </g>
    <g id="Group_10540" data-name="Group 10540" transform="translate(41.4 30.4)" clip-path="url(#clip-path)">
      <path id="Path_13420" data-name="Path 13420" d="M93.9,101.844A8.409,8.409,0,0,0,95.51,99.7a10.253,10.253,0,0,0,.715-2.5l2.683-18.6a6.324,6.324,0,0,1,.179-1.073v-.894a2.268,2.268,0,0,0-.179-1.073A5.706,5.706,0,0,0,97.835,74.3h6.8l8.049,20.39,7.87-20.39h6.439a3.208,3.208,0,0,0-.894,1.252,3.571,3.571,0,0,0-.358,1.61v1.431l2.325,18.959c.179.894.358,1.789.537,2.5a7.386,7.386,0,0,0,1.252,1.967h-7.333a2.781,2.781,0,0,0,1.073-1.431,5.292,5.292,0,0,0,.358-1.789v-.537L121.8,78.95l-9.3,23.43a5.684,5.684,0,0,1-1.789-1.789,15.6,15.6,0,0,1-1.61-3.041l-7.512-18.6L98.908,97.194a3.492,3.492,0,0,0-.179,1.252v.537a3.572,3.572,0,0,0,.358,1.61c.179.537.715.894,1.252,1.431H93.9Z" transform="translate(0.001 4.219)" fill="#005581"/>
    </g>
    <g id="Group_10541" data-name="Group 10541" transform="translate(41.4 30.4)" clip-path="url(#clip-path)">
      <path id="Path_13421" data-name="Path 13421" d="M134.659,101.844V99.7a21.366,21.366,0,0,1-3.935,2.146,10.493,10.493,0,0,1-4.114.715,9.425,9.425,0,0,1-4.114-.715,8.278,8.278,0,0,1-3.219-2.325,6.2,6.2,0,0,1-1.431-2.862,14.442,14.442,0,0,1-.537-4.471V79.129a10.633,10.633,0,0,0-.358-3.041A4.089,4.089,0,0,0,115.7,74.3h7.333a6.424,6.424,0,0,0-1.252,1.789,11.671,11.671,0,0,0-.358,3.041V91.292a23.972,23.972,0,0,0,.358,4.293,5.969,5.969,0,0,0,.894,2.146,5.073,5.073,0,0,0,1.967,1.431,8.355,8.355,0,0,0,3.041.537,12.169,12.169,0,0,0,2.683-.358,9.637,9.637,0,0,0,2.325-1.252,6.424,6.424,0,0,0,1.252-1.789,12.842,12.842,0,0,0,.358-3.041V79.129a10.632,10.632,0,0,0-.358-3.041,4.089,4.089,0,0,0-1.252-1.789h7.333a6.422,6.422,0,0,0-1.252,1.789,12.841,12.841,0,0,0-.358,3.041V97.015a10.633,10.633,0,0,0,.358,3.041,4.088,4.088,0,0,0,1.252,1.789Z" transform="translate(17.192 4.219)" fill="#005581"/>
    </g>
    <g id="Group_10542" data-name="Group 10542" transform="translate(41.4 30.4)" clip-path="url(#clip-path)">
      <path id="Path_13422" data-name="Path 13422" d="M157.656,74.3a4.088,4.088,0,0,0-1.252,1.789,11.669,11.669,0,0,0-.358,3.041v23.43a5.322,5.322,0,0,1-2.683-.894,14.952,14.952,0,0,1-3.219-3.4L136.371,80.381V97.015a13.325,13.325,0,0,0,.358,3.219,4.088,4.088,0,0,0,1.252,1.789H131.9a6.423,6.423,0,0,0,1.252-1.789,11.672,11.672,0,0,0,.358-3.041V79.129a11.672,11.672,0,0,0-.358-3.041A4.089,4.089,0,0,0,131.9,74.3h5.366l15.918,20.748V79.129a11.672,11.672,0,0,0-.358-3.041,4.089,4.089,0,0,0-1.252-1.789Z" transform="translate(29.967 4.219)" fill="#005581"/>
    </g>
    <g id="Group_10543" data-name="Group 10543" transform="translate(41.4 30.4)" clip-path="url(#clip-path)">
      <path id="Path_13423" data-name="Path 13423" d="M154.523,97.015a10.633,10.633,0,0,0,.358,3.041,4.089,4.089,0,0,0,1.252,1.789H148.8a4.088,4.088,0,0,0,1.252-1.789,11.67,11.67,0,0,0,.358-3.041V79.129a11.671,11.671,0,0,0-.358-3.041A4.089,4.089,0,0,0,148.8,74.3h7.333a4.088,4.088,0,0,0-1.252,1.789,11.672,11.672,0,0,0-.358,3.041Z" transform="translate(43.294 4.219)" fill="#005581"/>
    </g>
    <g id="Group_10544" data-name="Group 10544" transform="translate(41.4 30.4)" clip-path="url(#clip-path)">
      <path id="Path_13424" data-name="Path 13424" d="M166.584,97.015a10.634,10.634,0,0,0,.358,3.041,4.089,4.089,0,0,0,1.252,1.789H160.86a4.089,4.089,0,0,0,1.252-1.789,11.672,11.672,0,0,0,.358-3.041V77.341h-2.146a18.448,18.448,0,0,0-3.577.358,4.08,4.08,0,0,0-2.146,1.073l1.252-4.471H174.99l-1.252,4.471a2.6,2.6,0,0,0-1.61-1.073,5.685,5.685,0,0,0-2.5-.358h-3.041Z" transform="translate(47.868 4.219)" fill="#005581"/>
    </g>
    <g id="Group_10545" data-name="Group 10545" transform="translate(41.4 30.4)" clip-path="url(#clip-path)">
      <path id="Path_13425" data-name="Path 13425" d="M179.209,97.015a10.633,10.633,0,0,0,.358,3.041,4.089,4.089,0,0,0,1.252,1.789h-7.333a4.089,4.089,0,0,0,1.252-1.789,11.672,11.672,0,0,0,.358-3.041V89.5l-6.618-10.91a26.172,26.172,0,0,0-1.61-2.325A20.406,20.406,0,0,0,164.9,74.3h5.9l6.8,11.983,4.65-7.87a10.26,10.26,0,0,0,.715-1.252,2.268,2.268,0,0,0,.179-1.073,1.366,1.366,0,0,0-.358-.894c-.179-.358-.537-.537-.894-.894h6.26L179.03,89.5v7.512Z" transform="translate(55.99 4.219)" fill="#005581"/>
    </g>
    <g id="Group_10546" data-name="Group 10546" transform="translate(41.4 30.4)" clip-path="url(#clip-path)">
      <path id="Path_13426" data-name="Path 13426" d="M207.952,96.615l-1.967,5.008a34.781,34.781,0,0,1-3.577.894,19.709,19.709,0,0,1-3.219.358,17.64,17.64,0,0,1-4.293-.537,15.656,15.656,0,0,1-3.935-1.789,12.555,12.555,0,0,1-4.65-5.008,15.6,15.6,0,0,1-1.61-7.154,13.253,13.253,0,0,1,1.252-5.723,18.151,18.151,0,0,1,3.4-4.829A12.621,12.621,0,0,1,194,74.973a14.575,14.575,0,0,1,5.545-1.073,18.393,18.393,0,0,1,3.041.179,32.248,32.248,0,0,1,3.4.894v4.471a17.4,17.4,0,0,0-3.4-1.431,10.128,10.128,0,0,0-3.219-.537,9.052,9.052,0,0,0-7.154,2.862,10.739,10.739,0,0,0-2.683,7.512,12,12,0,0,0,2.862,8.406,9.118,9.118,0,0,0,7.333,3.219,10.816,10.816,0,0,0,3.935-.715c1.073-.537,2.683-1.252,4.293-2.146" transform="translate(71.604 3.903)" fill="#005581"/>
    </g>
    <g id="Group_10547" data-name="Group 10547" transform="translate(41.4 30.4)" clip-path="url(#clip-path)">
      <path id="Path_13427" data-name="Path 13427" d="M213.766,102.875a15.492,15.492,0,0,1-5.723-1.073,13.594,13.594,0,0,1-4.65-2.862,12.1,12.1,0,0,1-3.219-4.65,15.492,15.492,0,0,1-1.073-5.723,12.35,12.35,0,0,1,.715-4.471,17.409,17.409,0,0,1,1.967-4.114,15.4,15.4,0,0,1,5.187-4.471,14.643,14.643,0,0,1,6.8-1.61,15.755,15.755,0,0,1,5.9,1.073,13.594,13.594,0,0,1,4.65,2.862,12.1,12.1,0,0,1,3.22,4.65,15.755,15.755,0,0,1,1.073,5.9,13.253,13.253,0,0,1-1.252,5.723,18.151,18.151,0,0,1-3.4,4.829,11.326,11.326,0,0,1-4.65,2.862,14.575,14.575,0,0,1-5.545,1.073m.179-25.934a9.369,9.369,0,0,0-7.333,3.219,11.4,11.4,0,0,0-2.862,8.049,12,12,0,0,0,2.862,8.406,9.583,9.583,0,0,0,14.488.179,11.4,11.4,0,0,0,2.862-8.049,12.305,12.305,0,0,0-2.862-8.406,8.882,8.882,0,0,0-7.154-3.4" transform="translate(82.96 3.903)" fill="#005581"/>
    </g>
    <g id="Group_10548" data-name="Group 10548" transform="translate(41.4 30.4)" clip-path="url(#clip-path)">
      <path id="Path_13428" data-name="Path 13428" d="M217.6,101.844a6.423,6.423,0,0,0,1.252-1.789,11.671,11.671,0,0,0,.358-3.041V79.129a10.635,10.635,0,0,0-.358-3.041A4.089,4.089,0,0,0,217.6,74.3h7.333a4.088,4.088,0,0,0-1.252,1.789,11.671,11.671,0,0,0-.358,3.041V98.267a17.834,17.834,0,0,0,2.862.358c.894,0,1.61.179,2.146.179a13.948,13.948,0,0,0,3.935-.537,11.177,11.177,0,0,0,3.577-1.789l-1.789,5.366H217.6Z" transform="translate(97.548 4.219)" fill="#005581"/>
    </g>
    <g id="Group_10549" data-name="Group 10549" transform="translate(41.4 30.4)" clip-path="url(#clip-path)">
      <path id="Path_13429" data-name="Path 13429" d="M229.1,101.844a6.424,6.424,0,0,0,1.252-1.789,11.671,11.671,0,0,0,.358-3.041V79.129a10.635,10.635,0,0,0-.358-3.041A4.089,4.089,0,0,0,229.1,74.3h7.333a4.089,4.089,0,0,0-1.252,1.789,11.669,11.669,0,0,0-.358,3.041V98.267a17.834,17.834,0,0,0,2.862.358c.894,0,1.61.179,2.146.179a13.948,13.948,0,0,0,3.935-.537,9.625,9.625,0,0,0,3.577-1.789l-1.789,5.366H229.1Z" transform="translate(106.617 4.219)" fill="#005581"/>
    </g>
    <g id="Group_10550" data-name="Group 10550" transform="translate(41.4 30.4)" clip-path="url(#clip-path)">
      <path id="Path_13430" data-name="Path 13430" d="M240.5,101.844a6.422,6.422,0,0,0,1.252-1.789,11.671,11.671,0,0,0,.358-3.041V79.129a10.634,10.634,0,0,0-.358-3.041A4.089,4.089,0,0,0,240.5,74.3h14.666v4.293a6.045,6.045,0,0,0-2.146-1.073,10.827,10.827,0,0,0-2.683-.358,6.709,6.709,0,0,0-1.789.179,8.976,8.976,0,0,0-2.146.358v7.691h6.618v3.935a1.811,1.811,0,0,0-1.252-.715,11.124,11.124,0,0,0-2.862-.179h-2.5v9.837a18.6,18.6,0,0,0,2.683.358c.894,0,1.61.179,2.146.179a13.948,13.948,0,0,0,3.935-.537,11.177,11.177,0,0,0,3.577-1.789l-1.789,5.366Z" transform="translate(115.607 4.219)" fill="#005581"/>
    </g>
    <g id="Group_10551" data-name="Group 10551" transform="translate(41.4 30.4)" clip-path="url(#clip-path)">
      <path id="Path_13431" data-name="Path 13431" d="M273.621,79.166a14.627,14.627,0,0,0-3.4-1.61,11.231,11.231,0,0,0-3.4-.537,10.246,10.246,0,0,0-7.512,3.041,11.548,11.548,0,0,0-2.862,8.227,11.508,11.508,0,0,0,3.041,8.406c1.967,2.146,4.65,3.041,8.049,3.041a12.671,12.671,0,0,0,2.5-.179,14.9,14.9,0,0,0,2.683-.715v-5.9a10.633,10.633,0,0,0-.358-3.041,4.089,4.089,0,0,0-1.252-1.789H276.3v13.414c-1.789.358-3.4.715-4.829.894a34.922,34.922,0,0,1-4.114.358,21.5,21.5,0,0,1-5.008-.537,12.011,12.011,0,0,1-4.114-1.789,12.556,12.556,0,0,1-4.65-5.008,15.53,15.53,0,0,1-1.789-6.975,14.028,14.028,0,0,1,1.252-5.9,14.841,14.841,0,0,1,3.4-4.829,12.621,12.621,0,0,1,4.65-2.862,15.492,15.492,0,0,1,5.723-1.073,18.4,18.4,0,0,1,3.041.179,31.579,31.579,0,0,1,3.577.715v4.471Z" transform="translate(124.518 3.824)" fill="#005581"/>
    </g>
    <g id="Group_10552" data-name="Group 10552" transform="translate(41.4 30.4)" clip-path="url(#clip-path)">
      <path id="Path_13432" data-name="Path 13432" d="M267.8,101.844a6.423,6.423,0,0,0,1.252-1.789,11.666,11.666,0,0,0,.358-3.041V79.129a10.628,10.628,0,0,0-.358-3.041A4.088,4.088,0,0,0,267.8,74.3h14.666v4.293a6.044,6.044,0,0,0-2.146-1.073,10.826,10.826,0,0,0-2.683-.358,6.708,6.708,0,0,0-1.789.179,8.978,8.978,0,0,0-2.146.358v7.691h6.618v3.935a1.81,1.81,0,0,0-1.252-.715,11.124,11.124,0,0,0-2.862-.179h-2.5v9.837a18.6,18.6,0,0,0,2.683.358c.894,0,1.61.179,2.146.179a13.948,13.948,0,0,0,3.935-.537,11.177,11.177,0,0,0,3.577-1.789l-1.789,5.366Z" transform="translate(137.135 4.219)" fill="#005581"/>
    </g>
    <g id="Group_10553" data-name="Group 10553" transform="translate(41.4 30.4)" clip-path="url(#clip-path-25)">
      <rect id="Rectangle_6530" data-name="Rectangle 6530" width="421.211" height="1.967" transform="translate(0.358 69.039)" fill="#005581"/>
    </g>
  </g>
</svg>
